<?xml version="1.0" encoding="UTF-8" standalone="no"?>
<!-- Created with Inkscape (http://www.inkscape.org/) -->

<svg
   xmlns:dc="http://purl.org/dc/elements/1.1/"
   xmlns:cc="http://creativecommons.org/ns#"
   xmlns:rdf="http://www.w3.org/1999/02/22-rdf-syntax-ns#"
   xmlns:svg="http://www.w3.org/2000/svg"
   xmlns="http://www.w3.org/2000/svg"
   xmlns:sodipodi="http://sodipodi.sourceforge.net/DTD/sodipodi-0.dtd"
   xmlns:inkscape="http://www.inkscape.org/namespaces/inkscape"
   width="158.0444mm"
   height="158.04445mm"
   viewBox="0 0 559.99986 560.00001"
   id="svg2"
   version="1.1"
   inkscape:version="0.91 r13725"
   sodipodi:docname="toolbar_addnew.svg">
  <defs
     id="defs4" />
  <sodipodi:namedview
     id="base"
     pagecolor="#ffffff"
     bordercolor="#666666"
     borderopacity="1.0"
     inkscape:pageopacity="0.0"
     inkscape:pageshadow="2"
     inkscape:zoom="0.49497475"
     inkscape:cx="142.00541"
     inkscape:cy="280.74074"
     inkscape:document-units="px"
     inkscape:current-layer="layer1"
     showgrid="false"
     inkscape:window-width="1366"
     inkscape:window-height="705"
     inkscape:window-x="0"
     inkscape:window-y="30"
     inkscape:window-maximized="1"
     fit-margin-top="0"
     fit-margin-left="0"
     fit-margin-right="0"
     fit-margin-bottom="0" />
  <metadata
     id="metadata7">
    <rdf:RDF>
      <cc:Work
         rdf:about="">
        <dc:format>image/svg+xml</dc:format>
        <dc:type
           rdf:resource="http://purl.org/dc/dcmitype/StillImage" />
        <dc:title></dc:title>
      </cc:Work>
    </rdf:RDF>
  </metadata>
  <g
     inkscape:label="Layer 1"
     inkscape:groupmode="layer"
     id="layer1"
     transform="translate(-87.952665,-194.48784)">
    <path
       style="fill:#008000;fill-rule:evenodd;stroke:#000000;stroke-width:0.78771836px;stroke-linecap:butt;stroke-linejoin:miter;stroke-opacity:1"
       d="m 441.12401,401.01785 0,-162.98614 c -0.2252,-25.17914 -13.89785,-32.7999 -33.14207,-33.14585 l -78.22509,0 c -20.63534,-0.24712 -33.25081,10.3911 -35.32836,35.33241 l 0,160.86372 -163.62671,0 c -27.41877,-0.0929 -32.634809,14.40618 -32.450668,32.45438 l 0,80.91589 c 0.967012,24.16143 13.099378,34.14982 33.561188,33.56502 l 162.26138,0 0,162.56609 c 1.38584,20.68823 9.8601,34.45601 33.45635,33.46016 l 78.909,0 c 17.52131,-0.94593 35.9091,-0.37533 34.48158,-34.48551 l 0,-161.76648 163.72145,0 c 18.43726,0.34523 33.747,-4.00137 32.77284,-32.7766 l 0,-81.87111 c -0.77412,-28.37616 -15.62352,-31.64852 -32.06956,-32.07323 z"
       id="path3347"
       inkscape:connector-curvature="0"
       sodipodi:nodetypes="ccccccccccccccccccccc" />
  </g>
</svg>
